<svg width="1200" height="720" viewBox="0 0 1200 720" fill="none" xmlns="http://www.w3.org/2000/svg">
  <rect width="1200" height="720" fill="#FBF8F1"/>
  <rect x="50" y="40" width="1100" height="250" rx="24" fill="#FFFDF8" stroke="#D9D1C3" stroke-width="2"/>
  <rect x="50" y="355" width="1100" height="250" rx="24" fill="#FFFDF8" stroke="#D9D1C3" stroke-width="2"/>

  <text x="90" y="92" font-family="Arial, Helvetica, sans-serif" font-size="30" font-weight="700" fill="#263238">Read flow</text>
  <text x="90" y="407" font-family="Arial, Helvetica, sans-serif" font-size="30" font-weight="700" fill="#263238">Write flow</text>

  <rect x="90" y="130" width="170" height="90" rx="16" fill="#E6F2FF" stroke="#4A90E2" stroke-width="2"/>
  <text x="175" y="168" text-anchor="middle" font-family="Arial, Helvetica, sans-serif" font-size="24" font-weight="700" fill="#1C3D5A">HTTP</text>
  <text x="175" y="198" text-anchor="middle" font-family="Arial, Helvetica, sans-serif" font-size="22" fill="#1C3D5A">Controller</text>

  <rect x="310" y="130" width="190" height="90" rx="16" fill="#FFF1D8" stroke="#D29B2D" stroke-width="2"/>
  <text x="405" y="168" text-anchor="middle" font-family="Arial, Helvetica, sans-serif" font-size="22" font-weight="700" fill="#694B06">SearchSlots</text>
  <text x="405" y="198" text-anchor="middle" font-family="Arial, Helvetica, sans-serif" font-size="22" fill="#694B06">Use Case</text>

  <rect x="550" y="130" width="180" height="90" rx="16" fill="#F1E8FF" stroke="#8C61C9" stroke-width="2"/>
  <text x="640" y="168" text-anchor="middle" font-family="Arial, Helvetica, sans-serif" font-size="24" font-weight="700" fill="#4D3275">Query</text>
  <text x="640" y="198" text-anchor="middle" font-family="Arial, Helvetica, sans-serif" font-size="22" fill="#4D3275">Port</text>

  <rect x="780" y="130" width="180" height="90" rx="16" fill="#E8F7EE" stroke="#339966" stroke-width="2"/>
  <text x="870" y="168" text-anchor="middle" font-family="Arial, Helvetica, sans-serif" font-size="24" font-weight="700" fill="#1F5B3C">Query</text>
  <text x="870" y="198" text-anchor="middle" font-family="Arial, Helvetica, sans-serif" font-size="22" fill="#1F5B3C">Adapter</text>

  <rect x="1010" y="130" width="90" height="90" rx="16" fill="#FDEBEC" stroke="#C94C5D" stroke-width="2"/>
  <text x="1055" y="168" text-anchor="middle" font-family="Arial, Helvetica, sans-serif" font-size="22" font-weight="700" fill="#7C2430">Cache</text>
  <text x="1055" y="198" text-anchor="middle" font-family="Arial, Helvetica, sans-serif" font-size="20" fill="#7C2430">DB</text>

  <line x1="260" y1="175" x2="310" y2="175" stroke="#607D8B" stroke-width="4"/>
  <polygon points="310,175 298,168 298,182" fill="#607D8B"/>
  <line x1="500" y1="175" x2="550" y2="175" stroke="#607D8B" stroke-width="4"/>
  <polygon points="550,175 538,168 538,182" fill="#607D8B"/>
  <line x1="730" y1="175" x2="780" y2="175" stroke="#607D8B" stroke-width="4"/>
  <polygon points="780,175 768,168 768,182" fill="#607D8B"/>
  <line x1="960" y1="175" x2="1010" y2="175" stroke="#607D8B" stroke-width="4"/>
  <polygon points="1010,175 998,168 998,182" fill="#607D8B"/>

  <rect x="90" y="430" width="170" height="90" rx="16" fill="#E6F2FF" stroke="#4A90E2" stroke-width="2"/>
  <text x="175" y="468" text-anchor="middle" font-family="Arial, Helvetica, sans-serif" font-size="24" font-weight="700" fill="#1C3D5A">Scheduler</text>
  <text x="175" y="498" text-anchor="middle" font-family="Arial, Helvetica, sans-serif" font-size="22" fill="#1C3D5A">Worker</text>

  <rect x="310" y="430" width="190" height="90" rx="16" fill="#FFF1D8" stroke="#D29B2D" stroke-width="2"/>
  <text x="405" y="468" text-anchor="middle" font-family="Arial, Helvetica, sans-serif" font-size="22" font-weight="700" fill="#694B06">RefreshSlot</text>
  <text x="405" y="498" text-anchor="middle" font-family="Arial, Helvetica, sans-serif" font-size="22" fill="#694B06">Use Case</text>

  <rect x="550" y="430" width="180" height="90" rx="16" fill="#F1E8FF" stroke="#8C61C9" stroke-width="2"/>
  <text x="640" y="468" text-anchor="middle" font-family="Arial, Helvetica, sans-serif" font-size="24" font-weight="700" fill="#4D3275">Command</text>
  <text x="640" y="498" text-anchor="middle" font-family="Arial, Helvetica, sans-serif" font-size="22" fill="#4D3275">Port</text>

  <rect x="780" y="430" width="180" height="90" rx="16" fill="#E8F7EE" stroke="#339966" stroke-width="2"/>
  <text x="870" y="456" text-anchor="middle" font-family="Arial, Helvetica, sans-serif" font-size="24" font-weight="700" fill="#1F5B3C">Command</text>
  <text x="870" y="486" text-anchor="middle" font-family="Arial, Helvetica, sans-serif" font-size="22" fill="#1F5B3C">Adapter</text>
  <text x="870" y="514" text-anchor="middle" font-family="Arial, Helvetica, sans-serif" font-size="18" fill="#1F5B3C">Partner feed + DB</text>

  <rect x="1010" y="430" width="90" height="90" rx="16" fill="#FDEBEC" stroke="#C94C5D" stroke-width="2"/>
  <text x="1055" y="468" text-anchor="middle" font-family="Arial, Helvetica, sans-serif" font-size="22" font-weight="700" fill="#7C2430">DB</text>
  <text x="1055" y="498" text-anchor="middle" font-family="Arial, Helvetica, sans-serif" font-size="20" fill="#7C2430">State</text>

  <line x1="260" y1="475" x2="310" y2="475" stroke="#607D8B" stroke-width="4"/>
  <polygon points="310,475 298,468 298,482" fill="#607D8B"/>
  <line x1="500" y1="475" x2="550" y2="475" stroke="#607D8B" stroke-width="4"/>
  <polygon points="550,475 538,468 538,482" fill="#607D8B"/>
  <line x1="730" y1="475" x2="780" y2="475" stroke="#607D8B" stroke-width="4"/>
  <polygon points="780,475 768,468 768,482" fill="#607D8B"/>
  <line x1="960" y1="475" x2="1010" y2="475" stroke="#607D8B" stroke-width="4"/>
  <polygon points="1010,475 998,468 998,482" fill="#607D8B"/>

  <text x="600" y="655" text-anchor="middle" font-family="Arial, Helvetica, sans-serif" font-size="24" font-weight="700" fill="#263238">Same core, different flows</text>
  <text x="600" y="687" text-anchor="middle" font-family="Arial, Helvetica, sans-serif" font-size="20" fill="#546E7A">Read and write paths stay separate without letting infrastructure leak into the domain.</text>
</svg>
